<svg width="62" height="40" viewBox="0 0 62 40" fill="none" xmlns="http://www.w3.org/2000/svg">
<path d="M0 20C0 8.95431 8.92233 0 19.9286 0V8.88889L19.3599 8.90408C13.5096 9.20117 8.85714 14.0549 8.85714 20C8.85714 26.1365 13.814 31.1111 19.9286 31.1111H42.0714C48.186 31.1111 53.1429 26.1365 53.1429 20C53.1429 14.0549 48.4904 9.20117 42.6401 8.90408L42.0714 8.88889V0C53.0777 0 62 8.95431 62 20C62 31.0457 53.0777 40 42.0714 40H19.9286C8.92233 40 0 31.0457 0 20ZM42.0714 0V8.88889H19.9286V0H42.0714Z" fill="#FFD230"/>
</svg>
