<svg width="127" height="32" viewBox="0 0 127 32" fill="none" xmlns="http://www.w3.org/2000/svg">
<path d="M73.0756 16.1021C73.0756 17.9631 72.6522 19.6085 71.8054 21.0383C70.9815 22.4454 69.86 23.5461 68.4411 24.3404C67.045 25.1348 65.4772 25.5319 63.7378 25.5319C61.9984 25.5319 60.4192 25.1348 59.0003 24.3404C57.6042 23.5461 56.4827 22.4454 55.6359 21.0383C54.812 19.6085 54.4 17.9631 54.4 16.1021C54.4 14.2411 54.812 12.6071 55.6359 11.2C56.4827 9.77021 57.6042 8.65815 59.0003 7.86383C60.4192 7.04681 61.9984 6.6383 63.7378 6.6383C65.4772 6.6383 67.045 7.04681 68.4411 7.86383C69.86 8.65815 70.9815 9.77021 71.8054 11.2C72.6522 12.6071 73.0756 14.2411 73.0756 16.1021ZM68.956 16.1021C68.956 14.9447 68.7157 13.9461 68.2351 13.1064C67.7773 12.244 67.148 11.5745 66.3469 11.0979C65.5688 10.6213 64.6991 10.383 63.7378 10.383C62.7766 10.383 61.8954 10.6213 61.0944 11.0979C60.3163 11.5745 59.6869 12.244 59.2062 13.1064C58.7485 13.9461 58.5196 14.9447 58.5196 16.1021C58.5196 17.2369 58.7485 18.2355 59.2062 19.0979C59.6869 19.9376 60.3163 20.5957 61.0944 21.0723C61.8954 21.5489 62.7766 21.7872 63.7378 21.7872C64.6991 21.7872 65.5688 21.5489 66.3469 21.0723C67.148 20.5957 67.7773 19.9376 68.2351 19.0979C68.7157 18.2355 68.956 17.2369 68.956 16.1021Z" fill="white"/>
<path d="M87.5638 6.6383C89.1658 6.6383 90.5963 7.04681 91.855 7.86383C93.1367 8.65815 94.1437 9.75886 94.8761 11.166C95.6313 12.573 96.009 14.2071 96.009 16.0681C96.009 17.9291 95.6313 19.5745 94.8761 21.0043C94.1437 22.4113 93.1481 23.5234 91.8894 24.3404C90.6535 25.1348 89.2574 25.5319 87.7011 25.5319C86.7856 25.5319 85.9274 25.3844 85.1263 25.0894C84.3253 24.7943 83.6158 24.4199 82.9978 23.966C82.4028 23.5121 81.9336 23.0582 81.5903 22.6043C81.2699 22.1277 81.1097 21.7305 81.1097 21.4128L82.1739 20.9702V29.9234C82.1739 30.5135 81.9794 31.0014 81.5903 31.3872C81.2012 31.7957 80.7092 32 80.1141 32C79.5191 32 79.027 31.8071 78.6379 31.4213C78.2488 31.0355 78.0543 30.5362 78.0543 29.9234V9.05532C78.0543 8.46525 78.2488 7.9773 78.6379 7.59149C79.027 7.18298 79.5191 6.97872 80.1141 6.97872C80.7092 6.97872 81.2012 7.18298 81.5903 7.59149C81.9794 7.9773 82.1739 8.46525 82.1739 9.05532V10.7234L81.5903 10.417C81.5903 10.122 81.7505 9.77021 82.0709 9.3617C82.3914 8.9305 82.8262 8.51064 83.3755 8.10213C83.9248 7.67092 84.5541 7.31915 85.2636 7.04681C85.996 6.77447 86.7627 6.6383 87.5638 6.6383ZM87.0488 10.383C86.0418 10.383 85.1606 10.6326 84.4054 11.1319C83.6501 11.6312 83.0551 12.3121 82.6202 13.1745C82.2083 14.0142 82.0023 14.9787 82.0023 16.0681C82.0023 17.1348 82.2083 18.1106 82.6202 18.9957C83.0551 19.8582 83.6501 20.539 84.4054 21.0383C85.1606 21.5376 86.0418 21.7872 87.0488 21.7872C88.0558 21.7872 88.9255 21.5376 89.6579 21.0383C90.4132 20.539 90.9968 19.8582 91.4087 18.9957C91.8436 18.1106 92.061 17.1348 92.061 16.0681C92.061 14.9787 91.8436 14.0142 91.4087 13.1745C90.9968 12.3121 90.4132 11.6312 89.6579 11.1319C88.9255 10.6326 88.0558 10.383 87.0488 10.383Z" fill="white"/>
<path d="M104.864 23.1149C104.864 23.705 104.669 24.2043 104.28 24.6128C103.891 24.9986 103.399 25.1915 102.804 25.1915C102.209 25.1915 101.717 24.9986 101.328 24.6128C100.939 24.2043 100.744 23.705 100.744 23.1149V9.05532C100.744 8.46525 100.939 7.9773 101.328 7.59149C101.717 7.18298 102.209 6.97872 102.804 6.97872C103.399 6.97872 103.891 7.18298 104.28 7.59149C104.669 7.9773 104.864 8.46525 104.864 9.05532V23.1149ZM102.77 4.76596C101.991 4.76596 101.442 4.64113 101.122 4.39149C100.801 4.14184 100.641 3.69929 100.641 3.06383V2.41702C100.641 1.75886 100.813 1.31631 101.156 1.08936C101.522 0.839716 102.072 0.714893 102.804 0.714893C103.605 0.714893 104.166 0.839716 104.486 1.08936C104.807 1.33901 104.967 1.78156 104.967 2.41702V3.06383C104.967 3.72198 104.795 4.17589 104.452 4.42553C104.108 4.65248 103.548 4.76596 102.77 4.76596Z" fill="white"/>
<path d="M112.874 25.1915C112.279 25.1915 111.787 24.9986 111.398 24.6128C111.009 24.2043 110.814 23.705 110.814 23.1149V2.0766C110.814 1.48652 111.009 0.99858 111.398 0.612764C111.787 0.204255 112.279 0 112.874 0C113.469 0 113.961 0.204255 114.35 0.612764C114.739 0.99858 114.934 1.48652 114.934 2.0766V23.1149C114.934 23.705 114.739 24.2043 114.35 24.6128C113.961 24.9986 113.469 25.1915 112.874 25.1915ZM123.791 6.97872C124.317 6.97872 124.775 7.19433 125.164 7.62553C125.553 8.05674 125.748 8.47659 125.748 8.88511C125.748 9.42979 125.473 9.94042 124.924 10.417L114.59 19.8468L114.419 15.1489L122.28 7.62553C122.715 7.19433 123.219 6.97872 123.791 6.97872ZM124.306 25.1574C123.711 25.1574 123.207 24.9305 122.795 24.4766L116.444 17.8043L119.568 14.9447L125.748 21.617C126.183 22.0709 126.4 22.5816 126.4 23.1489C126.4 23.739 126.16 24.2269 125.679 24.6128C125.221 24.9759 124.764 25.1574 124.306 25.1574Z" fill="white"/>
<path d="M0 16.0001C0 8.0472 6.4471 1.6001 14.4 1.6001V8.0001L13.9891 8.01103C9.76177 8.22494 6.4 11.7196 6.4 16.0001C6.4 20.4184 9.98172 24.0001 14.4 24.0001H30.4C34.8183 24.0001 38.4 20.4184 38.4 16.0001C38.4 11.7196 35.0382 8.22494 30.8109 8.01103L30.4 8.0001V1.6001C38.3529 1.6001 44.8 8.0472 44.8 16.0001C44.8 23.953 38.3529 30.4001 30.4 30.4001H14.4C6.4471 30.4001 0 23.953 0 16.0001ZM30.4 1.6001V8.0001H14.4V1.6001H30.4Z" fill="#FFD230"/>
</svg>
